{
  "asset": {
    "version": "2.0",
    "generator": "THREE.GLTFExporter"
  },
  "scenes": [
    {
      "name": "AuxScene",
      "nodes": [
        2
      ]
    }
  ],
  "scene": 0,
  "nodes": [
    {
      "matrix": [
        100,
        0,
        0,
        0,
        0,
        -0.00001343588565490797,
        99.99999657714513,
        0,
        0,
        -99.99999657714513,
        -0.00001343588565490797,
        0,
        -297.3824620246887,
        -2.755004079467226,
        24.99999877412752,
        1
      ],
      "name": "Mesh1_Agrupar_1_Model",
      "extras": {
        "name": "Mesh1 Agrupar_1 Model"
      },
      "mesh": 0
    },
    {
      "matrix": [
        -2.1316282072803005e-16,
        0,
        -0.96,
        0,
        0,
        0.9981833063823841,
        0,
        0,
        -1.0799999858379388,
        0,
        2.398081701744245e-16,
        0,
        371.06630861552867,
        77.25,
        -52.43394376694644,
        1
      ],
      "children": [
        0
      ]
    },
    {
      "matrix": [
        0.02,
        0,
        0,
        0,
        0,
        0.02,
        0,
        0,
        0,
        0,
        0.02,
        0,
        0,
        0,
        0,
        1
      ],
      "children": [
        1
      ]
    }
  ],
  "bufferViews": [
    {
      "buffer": 0,
      "byteOffset": 0,
      "byteLength": 1152,
      "target": 34962,
      "byteStride": 12
    },
    {
      "buffer": 0,
      "byteOffset": 1152,
      "byteLength": 1152,
      "target": 34962,
      "byteStride": 12
    },
    {
      "buffer": 0,
      "byteOffset": 2304,
      "byteLength": 768,
      "target": 34962,
      "byteStride": 8
    },
    {
      "buffer": 0,
      "byteOffset": 3072,
      "byteLength": 360,
      "target": 34963
    }
  ],
  "buffers": [
    {
      "byteLength": 3432,
      "uri": "data:application/octet-stream;base64,"
    }
  ],
  "accessors": [
    {
      "bufferView": 0,
      "componentType": 5126,
      "count": 96,
      "max": [
        1,
        1,
        1
      ],
      "min": [
        -1,
        -1,
        -1
      ],
      "type": "VEC3"
    },
    {
      "bufferView": 1,
      "componentType": 5126,
      "count": 96,
      "max": [
        4.223824501037598,
        0,
        0
      ],
      "min": [
        1.7238247394561768,
        -0.5,
        -0.05510001629590988
      ],
      "type": "VEC3"
    },
    {
      "bufferView": 2,
      "componentType": 5126,
      "count": 96,
      "max": [
        0.7275756597518921,
        0.75
      ],
      "min": [
        0.24252521991729736,
        0.25
      ],
      "type": "VEC2"
    },
    {
      "bufferView": 3,
      "componentType": 5123,
      "count": 180,
      "max": [
        95
      ],
      "min": [
        0
      ],
      "type": "SCALAR"
    }
  ],
  "materials": [
    {
      "pbrMetallicRoughness": {
        "metallicFactor": 0,
        "roughnessFactor": 1,
        "baseColorTexture": {
          "index": 0
        }
      },
      "name": "GTA 059RM; PIEZA ENCIMERA"
    }
  ],
  "textures": [
    {
      "sampler": 0,
      "source": 0,
      "name": "Canela"
    }
  ],
  "samplers": [
    {
      "magFilter": 9729,
      "minFilter": 9729,
      "wrapS": 33071,
      "wrapT": 33071
    }
  ],
  "images": [
    {
      "mimeType": "image/png",
      "uri": "data:image/png;base64,"
    }
  ],
  "meshes": [
    {
      "primitives": [
        {
          "mode": 4,
          "attributes": {
            "NORMAL": 0,
            "POSITION": 1,
            "TEXCOORD_0": 2
          },
          "indices": 3,
          "material": 0
        }
      ]
    }
  ]
}