{
  "asset": {
    "version": "2.0",
    "generator": "THREE.GLTFExporter"
  },
  "scenes": [
    {
      "name": "AuxScene",
      "nodes": [
        4
      ]
    }
  ],
  "scene": 0,
  "nodes": [
    {
      "matrix": [
        100,
        0,
        0,
        0,
        0,
        -0.00001343588563270351,
        99.9999965771451,
        0,
        0,
        -100.01325646438656,
        -0.000013437667216049278,
        0,
        -69.9999988079071,
        -80.00132429475434,
        4.999970318214704,
        1
      ],
      "name": "Mesh6_Agrupar_6_Model002",
      "extras": {
        "name": "Mesh6 Agrupar_6 Model.002"
      },
      "mesh": 0
    },
    {
      "matrix": [
        100,
        0,
        0,
        0,
        0,
        -0.00001343588563270351,
        99.9999965771451,
        0,
        0,
        -100.01325646438656,
        -0.000013437667216049278,
        0,
        -69.9999988079071,
        -80.00132429475434,
        4.999970318214704,
        1
      ],
      "name": "Mesh6_Agrupar_6_Model001",
      "extras": {
        "name": "Mesh6 Agrupar_6 Model.001"
      },
      "mesh": 1
    },
    {
      "matrix": [
        100,
        0,
        0,
        0,
        0,
        -0.00001343588563270351,
        99.9999965771451,
        0,
        0,
        -100.01325646438656,
        -0.000013437667216049278,
        0,
        -69.9999988079071,
        -80.00132429475434,
        4.999970318214704,
        1
      ],
      "name": "Mesh6_Agrupar_6_Model",
      "extras": {
        "name": "Mesh6 Agrupar_6 Model"
      },
      "mesh": 2
    },
    {
      "matrix": [
        3.4892723631076353e-16,
        0,
        1.5714285714285716,
        0,
        0,
        1.0000021428617345,
        0,
        0,
        -1.0000002939300865,
        0,
        2.2204467019062124e-16,
        0,
        393.4467776196643,
        173.84841985252555,
        -41.469355375539635,
        1
      ],
      "children": [
        0,
        1,
        2
      ]
    },
    {
      "matrix": [
        0.02,
        0,
        0,
        0,
        0,
        0.02,
        0,
        0,
        0,
        0,
        0.02,
        0,
        0,
        0,
        0,
        1
      ],
      "children": [
        3
      ]
    }
  ],
  "bufferViews": [
    {
      "buffer": 0,
      "byteOffset": 0,
      "byteLength": 11376,
      "target": 34962,
      "byteStride": 12
    },
    {
      "buffer": 0,
      "byteOffset": 11376,
      "byteLength": 11376,
      "target": 34962,
      "byteStride": 12
    },
    {
      "buffer": 0,
      "byteOffset": 22752,
      "byteLength": 7584,
      "target": 34962,
      "byteStride": 8
    },
    {
      "buffer": 0,
      "byteOffset": 30336,
      "byteLength": 3888,
      "target": 34963
    },
    {
      "buffer": 0,
      "byteOffset": 34224,
      "byteLength": 9792,
      "target": 34962,
      "byteStride": 12
    },
    {
      "buffer": 0,
      "byteOffset": 44016,
      "byteLength": 9792,
      "target": 34962,
      "byteStride": 12
    },
    {
      "buffer": 0,
      "byteOffset": 53808,
      "byteLength": 6528,
      "target": 34962,
      "byteStride": 8
    },
    {
      "buffer": 0,
      "byteOffset": 60336,
      "byteLength": 3216,
      "target": 34963
    },
    {
      "buffer": 0,
      "byteOffset": 63552,
      "byteLength": 288,
      "target": 34962,
      "byteStride": 12
    },
    {
      "buffer": 0,
      "byteOffset": 63840,
      "byteLength": 288,
      "target": 34962,
      "byteStride": 12
    },
    {
      "buffer": 0,
      "byteOffset": 64128,
      "byteLength": 384,
      "target": 34962,
      "byteStride": 16
    },
    {
      "buffer": 0,
      "byteOffset": 64512,
      "byteLength": 192,
      "target": 34962,
      "byteStride": 8
    },
    {
      "buffer": 0,
      "byteOffset": 64704,
      "byteLength": 72,
      "target": 34963
    }
  ],
  "buffers": [
    {
      "byteLength": 64776,
      "uri": "data:application/octet-stream;base64,"
    }
  ],
  "accessors": [
    {
      "bufferView": 0,
      "componentType": 5126,
      "count": 948,
      "max": [
        1,
        1,
        1
      ],
      "min": [
        -1,
        -1,
        -1
      ],
      "type": "VEC3"
    },
    {
      "bufferView": 1,
      "componentType": 5126,
      "count": 948,
      "max": [
        1.399999976158142,
        9.775239817599868e-8,
        -1.399814248085022
      ],
      "min": [
        0,
        -0.09999989718198776,
        -1.4998143911361694
      ],
      "type": "VEC3"
    },
    {
      "bufferView": 2,
      "componentType": 5126,
      "count": 948,
      "max": [
        0.4437596797943115,
        0.264801561832428
      ],
      "min": [
        0,
        0.22585046291351318
      ],
      "type": "VEC2"
    },
    {
      "bufferView": 3,
      "componentType": 5123,
      "count": 1944,
      "max": [
        947
      ],
      "min": [
        0
      ],
      "type": "SCALAR"
    },
    {
      "bufferView": 4,
      "componentType": 5126,
      "count": 816,
      "max": [
        1,
        1,
        1
      ],
      "min": [
        -1,
        -1,
        -1
      ],
      "type": "VEC3"
    },
    {
      "bufferView": 5,
      "componentType": 5126,
      "count": 816,
      "max": [
        1.3949999809265137,
        -0.007500211708247662,
        -0.10000000149011612
      ],
      "min": [
        0.014999999664723873,
        -0.08999989926815033,
        -1.4898144006729126
      ],
      "type": "VEC3"
    },
    {
      "bufferView": 6,
      "componentType": 5126,
      "count": 816,
      "max": [
        1,
        1
      ],
      "min": [
        0.18530620634555817,
        5.960464477539063e-8
      ],
      "type": "VEC2"
    },
    {
      "bufferView": 7,
      "componentType": 5123,
      "count": 1608,
      "max": [
        815
      ],
      "min": [
        0
      ],
      "type": "SCALAR"
    },
    {
      "bufferView": 8,
      "componentType": 5126,
      "count": 24,
      "max": [
        1,
        1,
        1
      ],
      "min": [
        -1,
        -1,
        -1
      ],
      "type": "VEC3"
    },
    {
      "bufferView": 9,
      "componentType": 5126,
      "count": 24,
      "max": [
        1.375,
        -0.009999901987612247,
        -1.3498389720916748
      ],
      "min": [
        0.014999999664723873,
        -0.01500021107494831,
        -1.4498144388198853
      ],
      "type": "VEC3"
    },
    {
      "bufferView": 10,
      "componentType": 5126,
      "count": 24,
      "max": [
        1,
        1,
        1.1919556897055372e-8,
        1
      ],
      "min": [
        0,
        -1,
        0,
        1
      ],
      "type": "VEC4"
    },
    {
      "bufferView": 11,
      "componentType": 5126,
      "count": 24,
      "max": [
        0.9960334897041321,
        1
      ],
      "min": [
        0,
        0
      ],
      "type": "VEC2"
    },
    {
      "bufferView": 12,
      "componentType": 5123,
      "count": 36,
      "max": [
        23
      ],
      "min": [
        0
      ],
      "type": "SCALAR"
    }
  ],
  "materials": [
    {
      "pbrMetallicRoughness": {
        "baseColorFactor": [
          0.6000000238418579,
          0.6000000238418579,
          0.6000000238418579,
          1
        ],
        "metallicFactor": 0,
        "roughnessFactor": 1
      },
      "name": "METAL"
    },
    {
      "pbrMetallicRoughness": {
        "baseColorFactor": [
          0.9200000166893005,
          0.9200000166893005,
          0.9200000166893005,
          1
        ],
        "metallicFactor": 0,
        "roughnessFactor": 1
      },
      "name": "BLANCO"
    },
    {
      "pbrMetallicRoughness": {
        "baseColorFactor": [
          0.949999988079071,
          0.949999988079071,
          0.949999988079071,
          0.949999988079071
        ],
        "metallicFactor": 0,
        "roughnessFactor": 1
      },
      "alphaMode": "BLEND",
      "name": "BLANCO TRANS"
    }
  ],
  "meshes": [
    {
      "primitives": [
        {
          "mode": 4,
          "attributes": {
            "NORMAL": 0,
            "POSITION": 1,
            "TEXCOORD_0": 2
          },
          "indices": 3,
          "material": 0
        }
      ]
    },
    {
      "primitives": [
        {
          "mode": 4,
          "attributes": {
            "NORMAL": 4,
            "POSITION": 5,
            "TEXCOORD_0": 6
          },
          "indices": 7,
          "material": 1
        }
      ]
    },
    {
      "primitives": [
        {
          "mode": 4,
          "attributes": {
            "NORMAL": 8,
            "POSITION": 9,
            "TANGENT": 10,
            "TEXCOORD_0": 11
          },
          "indices": 12,
          "material": 2
        }
      ]
    }
  ]
}