{
  "asset": {
    "version": "2.0",
    "generator": "THREE.GLTFExporter"
  },
  "scenes": [
    {
      "name": "AuxScene",
      "nodes": [
        10
      ]
    }
  ],
  "scene": 0,
  "nodes": [
    {
      "matrix": [
        1.0021435022354126,
        0,
        0,
        0,
        0,
        -1.3748364277816397e-7,
        1.0232569821110173,
        0,
        0,
        -1.0186434635540265,
        -1.3686377567896158e-7,
        0,
        -25.069794066813305,
        -12.026032578490721,
        11.0063693363937,
        1
      ],
      "name": "Mesh29_Componente_2_1_Model008",
      "extras": {
        "name": "Mesh29 Componente_2_1 Model.008"
      },
      "mesh": 0
    },
    {
      "matrix": [
        1.0021435022354126,
        0,
        0,
        0,
        0,
        -1.3748364277816397e-7,
        1.0232569821110173,
        0,
        0,
        -1.0186434635540265,
        -1.3686377567896158e-7,
        0,
        -25.069794066813305,
        -12.026032578490721,
        11.0063693363937,
        1
      ],
      "name": "Mesh29_Componente_2_1_Model007",
      "extras": {
        "name": "Mesh29 Componente_2_1 Model.007"
      },
      "mesh": 1
    },
    {
      "matrix": [
        1.0021435022354126,
        0,
        0,
        0,
        0,
        -1.3748364277816397e-7,
        1.0232569821110173,
        0,
        0,
        -1.0186434635540265,
        -1.3686377567896158e-7,
        0,
        -25.069794066813305,
        -12.026032578490721,
        11.0063693363937,
        1
      ],
      "name": "Mesh29_Componente_2_1_Model006",
      "extras": {
        "name": "Mesh29 Componente_2_1 Model.006"
      },
      "mesh": 2
    },
    {
      "matrix": [
        1.0021435022354126,
        0,
        0,
        0,
        0,
        -1.3748364277816397e-7,
        1.0232569821110173,
        0,
        0,
        -1.0186434635540265,
        -1.3686377567896158e-7,
        0,
        -25.069794066813305,
        -12.026032578490721,
        11.0063693363937,
        1
      ],
      "name": "Mesh29_Componente_2_1_Model005",
      "extras": {
        "name": "Mesh29 Componente_2_1 Model.005"
      },
      "mesh": 3
    },
    {
      "matrix": [
        1.0021435022354126,
        0,
        0,
        0,
        0,
        -1.3748364277816397e-7,
        1.0232569821110173,
        0,
        0,
        -1.0186434635540265,
        -1.3686377567896158e-7,
        0,
        -25.069794066813305,
        -12.026032578490721,
        11.0063693363937,
        1
      ],
      "name": "Mesh29_Componente_2_1_Model004",
      "extras": {
        "name": "Mesh29 Componente_2_1 Model.004"
      },
      "mesh": 4
    },
    {
      "matrix": [
        1.0021435022354126,
        0,
        0,
        0,
        0,
        -1.3748364277816397e-7,
        1.0232569821110173,
        0,
        0,
        -1.0186434635540265,
        -1.3686377567896158e-7,
        0,
        -25.069794066813305,
        -12.026032578490721,
        11.0063693363937,
        1
      ],
      "name": "Mesh29_Componente_2_1_Model003",
      "extras": {
        "name": "Mesh29 Componente_2_1 Model.003"
      },
      "mesh": 5
    },
    {
      "matrix": [
        1.0021435022354126,
        0,
        0,
        0,
        0,
        -1.3748364277816397e-7,
        1.0232569821110173,
        0,
        0,
        -1.0186434635540265,
        -1.3686377567896158e-7,
        0,
        -25.069794066813305,
        -12.026032578490721,
        11.0063693363937,
        1
      ],
      "name": "Mesh29_Componente_2_1_Model002",
      "extras": {
        "name": "Mesh29 Componente_2_1 Model.002"
      },
      "mesh": 6
    },
    {
      "matrix": [
        1.0021435022354126,
        0,
        0,
        0,
        0,
        -1.3748364277816397e-7,
        1.0232569821110173,
        0,
        0,
        -1.0186434635540265,
        -1.3686377567896158e-7,
        0,
        -25.069794066813305,
        -12.026032578490721,
        11.0063693363937,
        1
      ],
      "name": "Mesh29_Componente_2_1_Model001",
      "extras": {
        "name": "Mesh29 Componente_2_1 Model.001"
      },
      "mesh": 7
    },
    {
      "matrix": [
        1.0021435022354126,
        0,
        0,
        0,
        0,
        -1.3748364277816397e-7,
        1.0232569821110173,
        0,
        0,
        -1.0186434635540265,
        -1.3686377567896158e-7,
        0,
        -25.069794066813305,
        -12.026032578490721,
        11.0063693363937,
        1
      ],
      "name": "Mesh29_Componente_2_1_Model",
      "extras": {
        "name": "Mesh29 Componente_2_1 Model"
      },
      "mesh": 8
    },
    {
      "matrix": [
        1.3322674456972804e-16,
        0,
        -0.5999999172000114,
        0,
        0,
        0.7500010031263417,
        0,
        0,
        0.6818172161170704,
        0,
        1.5139383438379958e-16,
        0,
        42.94557113646562,
        131,
        -19.753302612713867,
        1
      ],
      "children": [
        0,
        1,
        2,
        3,
        4,
        5,
        6,
        7,
        8
      ]
    },
    {
      "matrix": [
        0.02,
        0,
        0,
        0,
        0,
        0.02,
        0,
        0,
        0,
        0,
        0.02,
        0,
        0,
        0,
        0,
        1
      ],
      "children": [
        9
      ]
    }
  ],
  "bufferViews": [
    {
      "buffer": 0,
      "byteOffset": 0,
      "byteLength": 3672,
      "target": 34962,
      "byteStride": 12
    },
    {
      "buffer": 0,
      "byteOffset": 3672,
      "byteLength": 3672,
      "target": 34962,
      "byteStride": 12
    },
    {
      "buffer": 0,
      "byteOffset": 7344,
      "byteLength": 2448,
      "target": 34962,
      "byteStride": 8
    },
    {
      "buffer": 0,
      "byteOffset": 9792,
      "byteLength": 1356,
      "target": 34963
    },
    {
      "buffer": 0,
      "byteOffset": 11148,
      "byteLength": 360,
      "target": 34962,
      "byteStride": 12
    },
    {
      "buffer": 0,
      "byteOffset": 11508,
      "byteLength": 360,
      "target": 34962,
      "byteStride": 12
    },
    {
      "buffer": 0,
      "byteOffset": 11868,
      "byteLength": 240,
      "target": 34962,
      "byteStride": 8
    },
    {
      "buffer": 0,
      "byteOffset": 12108,
      "byteLength": 168,
      "target": 34963
    },
    {
      "buffer": 0,
      "byteOffset": 12276,
      "byteLength": 288,
      "target": 34962,
      "byteStride": 12
    },
    {
      "buffer": 0,
      "byteOffset": 12564,
      "byteLength": 288,
      "target": 34962,
      "byteStride": 12
    },
    {
      "buffer": 0,
      "byteOffset": 12852,
      "byteLength": 192,
      "target": 34962,
      "byteStride": 8
    },
    {
      "buffer": 0,
      "byteOffset": 13044,
      "byteLength": 144,
      "target": 34963
    },
    {
      "buffer": 0,
      "byteOffset": 13188,
      "byteLength": 18684,
      "target": 34962,
      "byteStride": 12
    },
    {
      "buffer": 0,
      "byteOffset": 31872,
      "byteLength": 18684,
      "target": 34962,
      "byteStride": 12
    },
    {
      "buffer": 0,
      "byteOffset": 50556,
      "byteLength": 12456,
      "target": 34962,
      "byteStride": 8
    },
    {
      "buffer": 0,
      "byteOffset": 63012,
      "byteLength": 14132,
      "target": 34963
    },
    {
      "buffer": 0,
      "byteOffset": 77144,
      "byteLength": 5244,
      "target": 34962,
      "byteStride": 12
    },
    {
      "buffer": 0,
      "byteOffset": 82388,
      "byteLength": 5244,
      "target": 34962,
      "byteStride": 12
    },
    {
      "buffer": 0,
      "byteOffset": 87632,
      "byteLength": 3496,
      "target": 34962,
      "byteStride": 8
    },
    {
      "buffer": 0,
      "byteOffset": 91128,
      "byteLength": 4004,
      "target": 34963
    },
    {
      "buffer": 0,
      "byteOffset": 95132,
      "byteLength": 15024,
      "target": 34962,
      "byteStride": 12
    },
    {
      "buffer": 0,
      "byteOffset": 110156,
      "byteLength": 15024,
      "target": 34962,
      "byteStride": 12
    },
    {
      "buffer": 0,
      "byteOffset": 125180,
      "byteLength": 10016,
      "target": 34962,
      "byteStride": 8
    },
    {
      "buffer": 0,
      "byteOffset": 135196,
      "byteLength": 9276,
      "target": 34963
    },
    {
      "buffer": 0,
      "byteOffset": 144472,
      "byteLength": 4836,
      "target": 34962,
      "byteStride": 12
    },
    {
      "buffer": 0,
      "byteOffset": 149308,
      "byteLength": 4836,
      "target": 34962,
      "byteStride": 12
    },
    {
      "buffer": 0,
      "byteOffset": 154144,
      "byteLength": 3224,
      "target": 34962,
      "byteStride": 8
    },
    {
      "buffer": 0,
      "byteOffset": 157368,
      "byteLength": 2820,
      "target": 34963
    },
    {
      "buffer": 0,
      "byteOffset": 160188,
      "byteLength": 11916,
      "target": 34962,
      "byteStride": 12
    },
    {
      "buffer": 0,
      "byteOffset": 172104,
      "byteLength": 11916,
      "target": 34962,
      "byteStride": 12
    },
    {
      "buffer": 0,
      "byteOffset": 184020,
      "byteLength": 7944,
      "target": 34962,
      "byteStride": 8
    },
    {
      "buffer": 0,
      "byteOffset": 191964,
      "byteLength": 7008,
      "target": 34963
    },
    {
      "buffer": 0,
      "byteOffset": 198972,
      "byteLength": 1440,
      "target": 34962,
      "byteStride": 12
    },
    {
      "buffer": 0,
      "byteOffset": 200412,
      "byteLength": 1440,
      "target": 34962,
      "byteStride": 12
    },
    {
      "buffer": 0,
      "byteOffset": 201852,
      "byteLength": 960,
      "target": 34962,
      "byteStride": 8
    },
    {
      "buffer": 0,
      "byteOffset": 202812,
      "byteLength": 384,
      "target": 34963
    }
  ],
  "buffers": [
    {
      "byteLength": 203196,
      "uri": "data:application/octet-stream;base64,"
    }
  ],
  "accessors": [
    {
      "bufferView": 0,
      "componentType": 5126,
      "count": 306,
      "max": [
        0.9848185181617737,
        1,
        0.9869418740272522
      ],
      "min": [
        -0.9848169684410095,
        -1,
        -0.9918180704116821
      ],
      "type": "VEC3"
    },
    {
      "bufferView": 1,
      "componentType": 5126,
      "count": 306,
      "max": [
        6.747330188751221,
        -8.632189750671387,
        -19.236299514770508
      ],
      "min": [
        6.481029987335205,
        -12.908900260925293,
        -20.47599983215332
      ],
      "type": "VEC3"
    },
    {
      "bufferView": 2,
      "componentType": 5126,
      "count": 306,
      "max": [
        0.9242507219314575,
        0.8808331489562988
      ],
      "min": [
        0.1696901023387909,
        0.11357015371322632
      ],
      "type": "VEC2"
    },
    {
      "bufferView": 3,
      "componentType": 5123,
      "count": 678,
      "max": [
        305
      ],
      "min": [
        0
      ],
      "type": "SCALAR"
    },
    {
      "bufferView": 4,
      "componentType": 5126,
      "count": 30,
      "max": [
        -0.049929626286029816,
        0.48448264598846436,
        -0.8548176288604736
      ],
      "min": [
        -0.05473574623465538,
        -0.5162510871887207,
        -0.9987527132034302
      ],
      "type": "VEC3"
    },
    {
      "bufferView": 5,
      "componentType": 5126,
      "count": 30,
      "max": [
        20.33690071105957,
        -6.781889915466309,
        -22.097200393676758
      ],
      "min": [
        12.319600105285645,
        -14.764900207519531,
        -23.328500747680664
      ],
      "type": "VEC3"
    },
    {
      "bufferView": 6,
      "componentType": 5126,
      "count": 30,
      "max": [
        0.9817240834236145,
        0.3410441279411316
      ],
      "min": [
        0.9033734798431396,
        0.2625117897987366
      ],
      "type": "VEC2"
    },
    {
      "bufferView": 7,
      "componentType": 5123,
      "count": 84,
      "max": [
        29
      ],
      "min": [
        0
      ],
      "type": "SCALAR"
    },
    {
      "bufferView": 8,
      "componentType": 5126,
      "count": 24,
      "max": [
        0.9659899473190308,
        0.00008213218825403601,
        -0.25857964158058167
      ],
      "min": [
        0.9658994078636169,
        -0.000060575570387300104,
        -0.2589176893234253
      ],
      "type": "VEC3"
    },
    {
      "bufferView": 9,
      "componentType": 5126,
      "count": 24,
      "max": [
        27.31730079650879,
        -2.7584500312805176,
        -15.32610034942627
      ],
      "min": [
        25.278799057006836,
        -18.753999710083008,
        -22.93400001525879
      ],
      "type": "VEC3"
    },
    {
      "bufferView": 10,
      "componentType": 5126,
      "count": 24,
      "max": [
        0.8806413412094116,
        0.8345571160316467
      ],
      "min": [
        0.8036956191062927,
        0.6777224540710449
      ],
      "type": "VEC2"
    },
    {
      "bufferView": 11,
      "componentType": 5123,
      "count": 72,
      "max": [
        23
      ],
      "min": [
        0
      ],
      "type": "SCALAR"
    },
    {
      "bufferView": 12,
      "componentType": 5126,
      "count": 1557,
      "max": [
        0.9945363998413086,
        1,
        0.9977115392684937
      ],
      "min": [
        -0.9980491399765015,
        -1,
        -1
      ],
      "type": "VEC3"
    },
    {
      "bufferView": 13,
      "componentType": 5126,
      "count": 1557,
      "max": [
        49.96269989013672,
        -0.006225480232387781,
        -0.025555599480867386
      ],
      "min": [
        0.06964380294084549,
        -21.506200790405273,
        -12.47439956665039
      ],
      "type": "VEC3"
    },
    {
      "bufferView": 14,
      "componentType": 5126,
      "count": 1557,
      "max": [
        0.9874674677848816,
        1
      ],
      "min": [
        0.002402045764029026,
        0.0026543140411376953
      ],
      "type": "VEC2"
    },
    {
      "bufferView": 15,
      "componentType": 5123,
      "count": 7065,
      "max": [
        1556
      ],
      "min": [
        0
      ],
      "type": "SCALAR"
    },
    {
      "bufferView": 16,
      "componentType": 5126,
      "count": 437,
      "max": [
        1,
        1,
        1
      ],
      "min": [
        -1,
        -1,
        -0.9917919039726257
      ],
      "type": "VEC3"
    },
    {
      "bufferView": 17,
      "componentType": 5126,
      "count": 437,
      "max": [
        44.50979995727539,
        -0.8062250018119812,
        -5
      ],
      "min": [
        4.113470077514648,
        -20.706199645996094,
        -21.63990020751953
      ],
      "type": "VEC3"
    },
    {
      "bufferView": 18,
      "componentType": 5126,
      "count": 437,
      "max": [
        0.9988486170768738,
        1
      ],
      "min": [
        0.12911874055862427,
        0.06751424074172974
      ],
      "type": "VEC2"
    },
    {
      "bufferView": 19,
      "componentType": 5123,
      "count": 2001,
      "max": [
        436
      ],
      "min": [
        0
      ],
      "type": "SCALAR"
    },
    {
      "bufferView": 20,
      "componentType": 5126,
      "count": 1252,
      "max": [
        0.9851242899894714,
        1,
        1
      ],
      "min": [
        -0.9999676942825317,
        -1,
        -0.9939221143722534
      ],
      "type": "VEC3"
    },
    {
      "bufferView": 21,
      "componentType": 5126,
      "count": 1252,
      "max": [
        48.320899963378906,
        -0.4697229862213135,
        -1.4361799955368042
      ],
      "min": [
        1.493530035018921,
        -21.042699813842773,
        -23.586299896240234
      ],
      "type": "VEC3"
    },
    {
      "bufferView": 22,
      "componentType": 5126,
      "count": 1252,
      "max": [
        0.9884569644927979,
        1
      ],
      "min": [
        0.0008663978660479188,
        0.01787865161895752
      ],
      "type": "VEC2"
    },
    {
      "bufferView": 23,
      "componentType": 5123,
      "count": 4638,
      "max": [
        1251
      ],
      "min": [
        0
      ],
      "type": "SCALAR"
    },
    {
      "bufferView": 24,
      "componentType": 5126,
      "count": 403,
      "max": [
        0.9925119280815125,
        0.9993091821670532,
        0.9999048113822937
      ],
      "min": [
        -0.9999999403953552,
        -0.9992912411689758,
        -1
      ],
      "type": "VEC3"
    },
    {
      "bufferView": 25,
      "componentType": 5126,
      "count": 403,
      "max": [
        48.59619903564453,
        -2.525710105895996,
        -6.750349998474121
      ],
      "min": [
        38.36629867553711,
        -18.9867000579834,
        -11.25
      ],
      "type": "VEC3"
    },
    {
      "bufferView": 26,
      "componentType": 5126,
      "count": 403,
      "max": [
        0.9980844259262085,
        1
      ],
      "min": [
        0.11909449100494385,
        0.02943497896194458
      ],
      "type": "VEC2"
    },
    {
      "bufferView": 27,
      "componentType": 5123,
      "count": 1410,
      "max": [
        402
      ],
      "min": [
        0
      ],
      "type": "SCALAR"
    },
    {
      "bufferView": 28,
      "componentType": 5126,
      "count": 993,
      "max": [
        1,
        1,
        1
      ],
      "min": [
        -0.9999966621398926,
        -1,
        -1
      ],
      "type": "VEC3"
    },
    {
      "bufferView": 29,
      "componentType": 5126,
      "count": 993,
      "max": [
        48.68190002441406,
        -1.001670002937317,
        -5
      ],
      "min": [
        4.436319828033447,
        -20.510799407958984,
        -23.586299896240234
      ],
      "type": "VEC3"
    },
    {
      "bufferView": 30,
      "componentType": 5126,
      "count": 993,
      "max": [
        0.9999999403953552,
        1
      ],
      "min": [
        0.008016104809939861,
        0.0005463957786560059
      ],
      "type": "VEC2"
    },
    {
      "bufferView": 31,
      "componentType": 5123,
      "count": 3504,
      "max": [
        992
      ],
      "min": [
        0
      ],
      "type": "SCALAR"
    },
    {
      "bufferView": 32,
      "componentType": 5126,
      "count": 120,
      "max": [
        0.8660256862640381,
        1,
        1
      ],
      "min": [
        -0.8660256862640381,
        -1,
        -1
      ],
      "type": "VEC3"
    },
    {
      "bufferView": 33,
      "componentType": 5126,
      "count": 120,
      "max": [
        44.14120101928711,
        -0.26077699661254883,
        -5.9252400398254395
      ],
      "min": [
        5.891170024871826,
        -21.251699447631836,
        -6.5747599601745605
      ],
      "type": "VEC3"
    },
    {
      "bufferView": 34,
      "componentType": 5126,
      "count": 120,
      "max": [
        0.627508819103241,
        0.6063835024833679
      ],
      "min": [
        0.14872102439403534,
        0.3868589997291565
      ],
      "type": "VEC2"
    },
    {
      "bufferView": 35,
      "componentType": 5123,
      "count": 192,
      "max": [
        119
      ],
      "min": [
        0
      ],
      "type": "SCALAR"
    }
  ],
  "materials": [
    {
      "pbrMetallicRoughness": {
        "baseColorFactor": [
          0,
          0,
          0,
          1
        ],
        "metallicFactor": 0,
        "roughnessFactor": 1
      },
      "name": "Color_009"
    },
    {
      "pbrMetallicRoughness": {
        "baseColorFactor": [
          0.8745099902153015,
          0.8745099902153015,
          0.8745099902153015,
          1
        ],
        "metallicFactor": 0,
        "roughnessFactor": 1
      },
      "name": "Clip1"
    },
    {
      "pbrMetallicRoughness": {
        "baseColorFactor": [
          0.09803900122642517,
          0.09803900122642517,
          0.09803900122642517,
          1
        ],
        "metallicFactor": 0,
        "roughnessFactor": 1
      },
      "name": "Color_005"
    },
    {
      "pbrMetallicRoughness": {
        "baseColorFactor": [
          0.22745099663734436,
          0.22745099663734436,
          0.22745099663734436,
          1
        ],
        "metallicFactor": 0,
        "roughnessFactor": 1
      },
      "name": "Color_007"
    },
    {
      "pbrMetallicRoughness": {
        "metallicFactor": 0,
        "roughnessFactor": 1
      },
      "name": "FrontColor"
    },
    {
      "pbrMetallicRoughness": {
        "baseColorFactor": [
          0.8941180109977722,
          0.8941180109977722,
          0.8941180109977722,
          1
        ],
        "metallicFactor": 0,
        "roughnessFactor": 1
      },
      "name": "Metal_Brushed2"
    },
    {
      "pbrMetallicRoughness": {
        "metallicFactor": 0,
        "roughnessFactor": 1
      },
      "name": "_Color_000_2"
    },
    {
      "pbrMetallicRoughness": {
        "baseColorFactor": [
          0.800000011920929,
          0.1568630039691925,
          0.1568630039691925,
          1
        ],
        "metallicFactor": 0,
        "roughnessFactor": 1
      },
      "name": "Color_A07"
    },
    {
      "pbrMetallicRoughness": {
        "baseColorFactor": [
          0.11764699965715408,
          0.11764699965715408,
          0.11764699965715408,
          1
        ],
        "metallicFactor": 0,
        "roughnessFactor": 1
      },
      "name": "_Color_008_1"
    }
  ],
  "meshes": [
    {
      "primitives": [
        {
          "mode": 4,
          "attributes": {
            "NORMAL": 0,
            "POSITION": 1,
            "TEXCOORD_0": 2
          },
          "indices": 3,
          "material": 0
        }
      ]
    },
    {
      "primitives": [
        {
          "mode": 4,
          "attributes": {
            "NORMAL": 4,
            "POSITION": 5,
            "TEXCOORD_0": 6
          },
          "indices": 7,
          "material": 1
        }
      ]
    },
    {
      "primitives": [
        {
          "mode": 4,
          "attributes": {
            "NORMAL": 8,
            "POSITION": 9,
            "TEXCOORD_0": 10
          },
          "indices": 11,
          "material": 2
        }
      ]
    },
    {
      "primitives": [
        {
          "mode": 4,
          "attributes": {
            "NORMAL": 12,
            "POSITION": 13,
            "TEXCOORD_0": 14
          },
          "indices": 15,
          "material": 3
        }
      ]
    },
    {
      "primitives": [
        {
          "mode": 4,
          "attributes": {
            "NORMAL": 16,
            "POSITION": 17,
            "TEXCOORD_0": 18
          },
          "indices": 19,
          "material": 4
        }
      ]
    },
    {
      "primitives": [
        {
          "mode": 4,
          "attributes": {
            "NORMAL": 20,
            "POSITION": 21,
            "TEXCOORD_0": 22
          },
          "indices": 23,
          "material": 5
        }
      ]
    },
    {
      "primitives": [
        {
          "mode": 4,
          "attributes": {
            "NORMAL": 24,
            "POSITION": 25,
            "TEXCOORD_0": 26
          },
          "indices": 27,
          "material": 6
        }
      ]
    },
    {
      "primitives": [
        {
          "mode": 4,
          "attributes": {
            "NORMAL": 28,
            "POSITION": 29,
            "TEXCOORD_0": 30
          },
          "indices": 31,
          "material": 7
        }
      ]
    },
    {
      "primitives": [
        {
          "mode": 4,
          "attributes": {
            "NORMAL": 32,
            "POSITION": 33,
            "TEXCOORD_0": 34
          },
          "indices": 35,
          "material": 8
        }
      ]
    }
  ]
}