{
  "asset": {
    "version": "2.0",
    "generator": "THREE.GLTFExporter"
  },
  "scenes": [
    {
      "name": "AuxScene",
      "nodes": [
        8
      ]
    }
  ],
  "scene": 0,
  "nodes": [
    {
      "matrix": [
        100,
        0,
        0,
        0,
        0,
        -0.000013145173895590046,
        97.83630036214281,
        0,
        0,
        -99.89873925639226,
        -0.000013422280836608718,
        0,
        -25.47308560460806,
        -22.71513710710627,
        35.872564342675034,
        1
      ],
      "name": "Mesh8_Component_5_1_Mac_Pro1_Model006",
      "extras": {
        "name": "Mesh8 Component_5_1 Mac_Pro1 Model.006"
      },
      "mesh": 0
    },
    {
      "matrix": [
        100,
        0,
        0,
        0,
        0,
        -0.000013145173895590046,
        97.83630036214281,
        0,
        0,
        -99.89873925639226,
        -0.000013422280836608718,
        0,
        -25.47308560460806,
        -22.71513710710627,
        35.872564342675034,
        1
      ],
      "name": "Mesh8_Component_5_1_Mac_Pro1_Model005",
      "extras": {
        "name": "Mesh8 Component_5_1 Mac_Pro1 Model.005"
      },
      "mesh": 1
    },
    {
      "matrix": [
        100,
        0,
        0,
        0,
        0,
        -0.000013145173895590046,
        97.83630036214281,
        0,
        0,
        -99.89873925639226,
        -0.000013422280836608718,
        0,
        -25.47308560460806,
        -22.71513710710627,
        35.872564342675034,
        1
      ],
      "name": "Mesh8_Component_5_1_Mac_Pro1_Model004",
      "extras": {
        "name": "Mesh8 Component_5_1 Mac_Pro1 Model.004"
      },
      "mesh": 2
    },
    {
      "matrix": [
        100,
        0,
        0,
        0,
        0,
        -0.000013145173895590046,
        97.83630036214281,
        0,
        0,
        -99.89873925639226,
        -0.000013422280836608718,
        0,
        -25.47308560460806,
        -22.71513710710627,
        35.872564342675034,
        1
      ],
      "name": "Mesh8_Component_5_1_Mac_Pro1_Model003",
      "extras": {
        "name": "Mesh8 Component_5_1 Mac_Pro1 Model.003"
      },
      "mesh": 3
    },
    {
      "matrix": [
        100,
        0,
        0,
        0,
        0,
        -0.000013145173895590046,
        97.83630036214281,
        0,
        0,
        -99.89873925639226,
        -0.000013422280836608718,
        0,
        -25.47308560460806,
        -22.71513710710627,
        35.872564342675034,
        1
      ],
      "name": "Mesh8_Component_5_1_Mac_Pro1_Model002",
      "extras": {
        "name": "Mesh8 Component_5_1 Mac_Pro1 Model.002"
      },
      "mesh": 4
    },
    {
      "matrix": [
        100,
        0,
        0,
        0,
        0,
        -0.000013145173895590046,
        97.83630036214281,
        0,
        0,
        -99.89873925639226,
        -0.000013422280836608718,
        0,
        -25.47308560460806,
        -22.71513710710627,
        35.872564342675034,
        1
      ],
      "name": "Mesh8_Component_5_1_Mac_Pro1_Model000",
      "extras": {
        "name": "Mesh8 Component_5_1 Mac_Pro1 Model.000"
      },
      "mesh": 5
    },
    {
      "matrix": [
        100,
        0,
        0,
        0,
        0,
        -0.000013145173895590046,
        97.83630036214281,
        0,
        0,
        -99.89873925639226,
        -0.000013422280836608718,
        0,
        -25.47308560460806,
        -22.71513710710627,
        35.872564342675034,
        1
      ],
      "name": "Mesh8_Component_5_1_Mac_Pro1_Model001",
      "extras": {
        "name": "Mesh8 Component_5_1 Mac_Pro1 Model.001"
      },
      "mesh": 6
    },
    {
      "matrix": [
        2.220446049250313e-16,
        0,
        1,
        0,
        0,
        1,
        0,
        0,
        -1,
        0,
        2.220446049250313e-16,
        0,
        378,
        103.5000134,
        -7,
        1
      ],
      "children": [
        0,
        1,
        2,
        3,
        4,
        5,
        6
      ]
    },
    {
      "matrix": [
        0.02,
        0,
        0,
        0,
        0,
        0.02,
        0,
        0,
        0,
        0,
        0.02,
        0,
        0,
        0,
        0,
        1
      ],
      "children": [
        7
      ]
    }
  ],
  "bufferViews": [
    {
      "buffer": 0,
      "byteOffset": 0,
      "byteLength": 48,
      "target": 34962,
      "byteStride": 12
    },
    {
      "buffer": 0,
      "byteOffset": 48,
      "byteLength": 48,
      "target": 34962,
      "byteStride": 12
    },
    {
      "buffer": 0,
      "byteOffset": 96,
      "byteLength": 64,
      "target": 34962,
      "byteStride": 16
    },
    {
      "buffer": 0,
      "byteOffset": 160,
      "byteLength": 32,
      "target": 34962,
      "byteStride": 8
    },
    {
      "buffer": 0,
      "byteOffset": 192,
      "byteLength": 12,
      "target": 34963
    },
    {
      "buffer": 0,
      "byteOffset": 204,
      "byteLength": 1008,
      "target": 34962,
      "byteStride": 12
    },
    {
      "buffer": 0,
      "byteOffset": 1212,
      "byteLength": 1008,
      "target": 34962,
      "byteStride": 12
    },
    {
      "buffer": 0,
      "byteOffset": 2220,
      "byteLength": 672,
      "target": 34962,
      "byteStride": 8
    },
    {
      "buffer": 0,
      "byteOffset": 2892,
      "byteLength": 444,
      "target": 34963
    },
    {
      "buffer": 0,
      "byteOffset": 3336,
      "byteLength": 3792,
      "target": 34962,
      "byteStride": 12
    },
    {
      "buffer": 0,
      "byteOffset": 7128,
      "byteLength": 3792,
      "target": 34962,
      "byteStride": 12
    },
    {
      "buffer": 0,
      "byteOffset": 10920,
      "byteLength": 2528,
      "target": 34962,
      "byteStride": 8
    },
    {
      "buffer": 0,
      "byteOffset": 13448,
      "byteLength": 1488,
      "target": 34963
    },
    {
      "buffer": 0,
      "byteOffset": 14936,
      "byteLength": 3828,
      "target": 34962,
      "byteStride": 12
    },
    {
      "buffer": 0,
      "byteOffset": 18764,
      "byteLength": 3828,
      "target": 34962,
      "byteStride": 12
    },
    {
      "buffer": 0,
      "byteOffset": 22592,
      "byteLength": 2552,
      "target": 34962,
      "byteStride": 8
    },
    {
      "buffer": 0,
      "byteOffset": 25144,
      "byteLength": 2264,
      "target": 34963
    },
    {
      "buffer": 0,
      "byteOffset": 27408,
      "byteLength": 1236,
      "target": 34962,
      "byteStride": 12
    },
    {
      "buffer": 0,
      "byteOffset": 28644,
      "byteLength": 1236,
      "target": 34962,
      "byteStride": 12
    },
    {
      "buffer": 0,
      "byteOffset": 29880,
      "byteLength": 824,
      "target": 34962,
      "byteStride": 8
    },
    {
      "buffer": 0,
      "byteOffset": 30704,
      "byteLength": 596,
      "target": 34963
    },
    {
      "buffer": 0,
      "byteOffset": 31300,
      "byteLength": 12156,
      "target": 34962,
      "byteStride": 12
    },
    {
      "buffer": 0,
      "byteOffset": 43456,
      "byteLength": 12156,
      "target": 34962,
      "byteStride": 12
    },
    {
      "buffer": 0,
      "byteOffset": 55612,
      "byteLength": 8104,
      "target": 34962,
      "byteStride": 8
    },
    {
      "buffer": 0,
      "byteOffset": 63716,
      "byteLength": 6356,
      "target": 34963
    },
    {
      "buffer": 0,
      "byteOffset": 70072,
      "byteLength": 624,
      "target": 34962,
      "byteStride": 12
    },
    {
      "buffer": 0,
      "byteOffset": 70696,
      "byteLength": 624,
      "target": 34962,
      "byteStride": 12
    },
    {
      "buffer": 0,
      "byteOffset": 71320,
      "byteLength": 416,
      "target": 34962,
      "byteStride": 8
    },
    {
      "buffer": 0,
      "byteOffset": 71736,
      "byteLength": 300,
      "target": 34963
    }
  ],
  "buffers": [
    {
      "byteLength": 72036,
      "uri": "data:application/octet-stream;base64,"
    }
  ],
  "accessors": [
    {
      "bufferView": 0,
      "componentType": 5126,
      "count": 4,
      "max": [
        0,
        -0.1441851705312729,
        0.9895507097244263
      ],
      "min": [
        0,
        -0.1441851705312729,
        0.9895507097244263
      ],
      "type": "VEC3"
    },
    {
      "bufferView": 1,
      "componentType": 5126,
      "count": 4,
      "max": [
        0.3704390525817871,
        -0.30401790142059326,
        -0.02330523356795311
      ],
      "min": [
        0.06468655169010162,
        -0.31467437744140625,
        -0.024857964366674423
      ],
      "type": "VEC3"
    },
    {
      "bufferView": 2,
      "componentType": 5126,
      "count": 4,
      "max": [
        1,
        0,
        0,
        1
      ],
      "min": [
        1,
        0,
        0,
        1
      ],
      "type": "VEC4"
    },
    {
      "bufferView": 3,
      "componentType": 5126,
      "count": 4,
      "max": [
        0.6795801520347595,
        0.6382673382759094
      ],
      "min": [
        0.5883406400680542,
        0.635089099407196
      ],
      "type": "VEC2"
    },
    {
      "bufferView": 4,
      "componentType": 5123,
      "count": 6,
      "max": [
        3
      ],
      "min": [
        0
      ],
      "type": "SCALAR"
    },
    {
      "bufferView": 5,
      "componentType": 5126,
      "count": 84,
      "max": [
        0.9982442855834961,
        0.9697664976119995,
        0.14133745431900024
      ],
      "min": [
        -0.9987149834632874,
        0.0501498281955719,
        -0.9895570278167725
      ],
      "type": "VEC3"
    },
    {
      "bufferView": 6,
      "componentType": 5126,
      "count": 84,
      "max": [
        0.3911060094833374,
        -0.16223597526550293,
        -0.0028282511048018932
      ],
      "min": [
        0.045666009187698364,
        -0.3193272650241852,
        -0.03426309674978256
      ],
      "type": "VEC3"
    },
    {
      "bufferView": 7,
      "componentType": 5126,
      "count": 84,
      "max": [
        0.9848189353942871,
        0.9706228971481323
      ],
      "min": [
        0.289009690284729,
        0.579208493232727
      ],
      "type": "VEC2"
    },
    {
      "bufferView": 8,
      "componentType": 5123,
      "count": 222,
      "max": [
        83
      ],
      "min": [
        0
      ],
      "type": "SCALAR"
    },
    {
      "bufferView": 9,
      "componentType": 5126,
      "count": 316,
      "max": [
        1,
        1,
        1
      ],
      "min": [
        -1,
        -0.9945485591888428,
        -1
      ],
      "type": "VEC3"
    },
    {
      "bufferView": 10,
      "componentType": 5126,
      "count": 316,
      "max": [
        0.5047178268432617,
        -0.16223597526550293,
        -0.0021295598708093166
      ],
      "min": [
        0.004717811942100525,
        -0.5710821747779846,
        -0.4525856673717499
      ],
      "type": "VEC3"
    },
    {
      "bufferView": 11,
      "componentType": 5126,
      "count": 316,
      "max": [
        0.912895917892456,
        0.6400265097618103
      ],
      "min": [
        0.06929928064346313,
        0.03850233554840088
      ],
      "type": "VEC2"
    },
    {
      "bufferView": 12,
      "componentType": 5123,
      "count": 744,
      "max": [
        315
      ],
      "min": [
        0
      ],
      "type": "SCALAR"
    },
    {
      "bufferView": 13,
      "componentType": 5126,
      "count": 319,
      "max": [
        0.999880850315094,
        0.9986513257026672,
        0.005755185149610043
      ],
      "min": [
        -0.999880850315094,
        -0.9986855983734131,
        -0.9995471239089966
      ],
      "type": "VEC3"
    },
    {
      "bufferView": 14,
      "componentType": 5126,
      "count": 319,
      "max": [
        0.4874989986419678,
        -0.16666699945926666,
        -0.0031337100081145763
      ],
      "min": [
        0.42469701170921326,
        -0.2874999940395355,
        -0.02012529969215393
      ],
      "type": "VEC3"
    },
    {
      "bufferView": 15,
      "componentType": 5126,
      "count": 319,
      "max": [
        0.2507457137107849,
        0.981448769569397
      ],
      "min": [
        0.17729930579662323,
        0.9171080589294434
      ],
      "type": "VEC2"
    },
    {
      "bufferView": 16,
      "componentType": 5123,
      "count": 1131,
      "max": [
        318
      ],
      "min": [
        0
      ],
      "type": "SCALAR"
    },
    {
      "bufferView": 17,
      "componentType": 5126,
      "count": 103,
      "max": [
        0.07545948773622513,
        0.3598514795303345,
        -0.9329742193222046
      ],
      "min": [
        -0.0265846848487854,
        0.19100980460643768,
        -0.9815878868103027
      ],
      "type": "VEC3"
    },
    {
      "bufferView": 18,
      "componentType": 5126,
      "count": 103,
      "max": [
        0.4612649977207184,
        -0.18948300182819366,
        -0.015638602897524834
      ],
      "min": [
        0.4501439929008484,
        -0.20265600085258484,
        -0.018774304538965225
      ],
      "type": "VEC3"
    },
    {
      "bufferView": 19,
      "componentType": 5126,
      "count": 103,
      "max": [
        0.23584216833114624,
        0.9287924766540527
      ],
      "min": [
        0.23256009817123413,
        0.9248203039169312
      ],
      "type": "VEC2"
    },
    {
      "bufferView": 20,
      "componentType": 5123,
      "count": 297,
      "max": [
        102
      ],
      "min": [
        0
      ],
      "type": "SCALAR"
    },
    {
      "bufferView": 21,
      "componentType": 5126,
      "count": 1013,
      "max": [
        1,
        1,
        1
      ],
      "min": [
        -1,
        -1,
        -1
      ],
      "type": "VEC3"
    },
    {
      "bufferView": 22,
      "componentType": 5126,
      "count": 1013,
      "max": [
        0.4874989986419678,
        -0.16666699945926666,
        -0.002795889973640442
      ],
      "min": [
        0.42469701170921326,
        -0.2874999940395355,
        -0.014192000031471252
      ],
      "type": "VEC3"
    },
    {
      "bufferView": 23,
      "componentType": 5126,
      "count": 1013,
      "max": [
        0.24986594915390015,
        0.981448769569397
      ],
      "min": [
        0.139310821890831,
        0.9203053116798401
      ],
      "type": "VEC2"
    },
    {
      "bufferView": 24,
      "componentType": 5123,
      "count": 3177,
      "max": [
        1012
      ],
      "min": [
        0
      ],
      "type": "SCALAR"
    },
    {
      "bufferView": 25,
      "componentType": 5126,
      "count": 52,
      "max": [
        0.0000015538183788521565,
        0.985532283782959,
        -0.16948795318603516
      ],
      "min": [
        -0.000024759236112004146,
        0.9834142923355103,
        -0.1813734918832779
      ],
      "type": "VEC3"
    },
    {
      "bufferView": 26,
      "componentType": 5126,
      "count": 52,
      "max": [
        0.5047736167907715,
        -0.4596504271030426,
        -0.13772182166576385
      ],
      "min": [
        0.004688095301389694,
        -0.5171911716461182,
        -0.4526335895061493
      ],
      "type": "VEC3"
    },
    {
      "bufferView": 27,
      "componentType": 5126,
      "count": 52,
      "max": [
        0.9959877729415894,
        0.4090240001678467
      ],
      "min": [
        0.3998491168022156,
        0.011341571807861328
      ],
      "type": "VEC2"
    },
    {
      "bufferView": 28,
      "componentType": 5123,
      "count": 150,
      "max": [
        51
      ],
      "min": [
        0
      ],
      "type": "SCALAR"
    }
  ],
  "materials": [
    {
      "pbrMetallicRoughness": {
        "metallicFactor": 0,
        "roughnessFactor": 1
      },
      "name": "FrontColor"
    },
    {
      "pbrMetallicRoughness": {
        "baseColorFactor": [
          0.8823530077934265,
          0.8862749934196472,
          0.8941180109977722,
          1
        ],
        "metallicFactor": 0,
        "roughnessFactor": 1,
        "baseColorTexture": {
          "index": 0
        }
      },
      "name": "teclado___C_pia"
    },
    {
      "pbrMetallicRoughness": {
        "baseColorFactor": [
          0.8627449870109558,
          0.8627449870109558,
          0.8627449870109558,
          1
        ],
        "metallicFactor": 0,
        "roughnessFactor": 1
      },
      "name": "_Gainsboro_"
    },
    {
      "pbrMetallicRoughness": {
        "metallicFactor": 0,
        "roughnessFactor": 1
      },
      "name": "Color_000"
    },
    {
      "pbrMetallicRoughness": {
        "baseColorFactor": [
          0.6196079850196838,
          0.6196079850196838,
          0.6196079850196838,
          1
        ],
        "metallicFactor": 0,
        "roughnessFactor": 1
      },
      "name": "Color_B25"
    },
    {
      "pbrMetallicRoughness": {
        "baseColorFactor": [
          0.6392160058021545,
          0.6392160058021545,
          0.6392160058021545,
          1
        ],
        "metallicFactor": 0,
        "roughnessFactor": 1
      },
      "name": "Color_002"
    },
    {
      "pbrMetallicRoughness": {
        "baseColorFactor": [
          0.6549019813537598,
          0.6117650270462036,
          0.6745100021362305,
          1
        ],
        "metallicFactor": 0,
        "roughnessFactor": 1
      },
      "name": "mac_pro_e_led_cinema_display"
    }
  ],
  "meshes": [
    {
      "primitives": [
        {
          "mode": 4,
          "attributes": {
            "NORMAL": 0,
            "POSITION": 1,
            "TANGENT": 2,
            "TEXCOORD_0": 3
          },
          "indices": 4,
          "material": 0
        }
      ]
    },
    {
      "primitives": [
        {
          "mode": 4,
          "attributes": {
            "NORMAL": 5,
            "POSITION": 6,
            "TEXCOORD_0": 7
          },
          "indices": 8,
          "material": 1
        }
      ]
    },
    {
      "primitives": [
        {
          "mode": 4,
          "attributes": {
            "NORMAL": 9,
            "POSITION": 10,
            "TEXCOORD_0": 11
          },
          "indices": 12,
          "material": 2
        }
      ]
    },
    {
      "primitives": [
        {
          "mode": 4,
          "attributes": {
            "NORMAL": 13,
            "POSITION": 14,
            "TEXCOORD_0": 15
          },
          "indices": 16,
          "material": 3
        }
      ]
    },
    {
      "primitives": [
        {
          "mode": 4,
          "attributes": {
            "NORMAL": 17,
            "POSITION": 18,
            "TEXCOORD_0": 19
          },
          "indices": 20,
          "material": 4
        }
      ]
    },
    {
      "primitives": [
        {
          "mode": 4,
          "attributes": {
            "NORMAL": 21,
            "POSITION": 22,
            "TEXCOORD_0": 23
          },
          "indices": 24,
          "material": 5
        }
      ]
    },
    {
      "primitives": [
        {
          "mode": 4,
          "attributes": {
            "NORMAL": 25,
            "POSITION": 26,
            "TEXCOORD_0": 27
          },
          "indices": 28,
          "material": 6
        }
      ]
    }
  ],
  "textures": [
    {
      "sampler": 0,
      "source": 0
    }
  ],
  "samplers": [
    {
      "magFilter": 9729,
      "minFilter": 9729,
      "wrapS": 33071,
      "wrapT": 33071
    }
  ],
  "images": [
    {
      "mimeType": "image/png",
      "uri": "data:image/png;base64,"
    }
  ]
}