{
  "asset": {
    "version": "2.0",
    "generator": "THREE.GLTFExporter"
  },
  "scenes": [
    {
      "name": "AuxScene",
      "nodes": [
        4
      ]
    }
  ],
  "scene": 0,
  "nodes": [
    {
      "matrix": [
        103.44828033447266,
        0,
        0,
        0,
        0,
        -0.00001343588770506142,
        100.00001183593365,
        0,
        0,
        -93.33333268180021,
        -0.000012540160286273014,
        0,
        -25.99903616798548,
        -0.6300040787939042,
        37.08030416156721,
        1
      ],
      "name": "Mesh2_Model002",
      "extras": {
        "name": "Mesh2 Model.002"
      },
      "mesh": 0
    },
    {
      "matrix": [
        103.44828033447266,
        0,
        0,
        0,
        0,
        -0.00001343588770506142,
        100.00001183593365,
        0,
        0,
        -93.33333268180021,
        -0.000012540160286273014,
        0,
        -25.99903616798548,
        -0.6300040787939042,
        37.08030416156721,
        1
      ],
      "name": "Mesh2_Model001",
      "extras": {
        "name": "Mesh2 Model.001"
      },
      "mesh": 1
    },
    {
      "matrix": [
        103.44828033447266,
        0,
        0,
        0,
        0,
        -0.00001343588770506142,
        100.00001183593365,
        0,
        0,
        -93.33333268180021,
        -0.000012540160286273014,
        0,
        -25.99903616798548,
        -0.6300040787939042,
        37.08030416156721,
        1
      ],
      "name": "Mesh2_Model",
      "extras": {
        "name": "Mesh2 Model"
      },
      "mesh": 2
    },
    {
      "matrix": [
        0.7624638367524993,
        0,
        -0.6470308320664928,
        0,
        0,
        1,
        0,
        0,
        0.6470308320664928,
        0,
        0.7624638367524993,
        0,
        354.85134555099137,
        81.35,
        49.11541067187948,
        1
      ],
      "children": [
        0,
        1,
        2
      ]
    },
    {
      "matrix": [
        0.02,
        0,
        0,
        0,
        0,
        0.02,
        0,
        0,
        0,
        0,
        0.02,
        0,
        0,
        0,
        0,
        1
      ],
      "children": [
        3
      ]
    }
  ],
  "bufferViews": [
    {
      "buffer": 0,
      "byteOffset": 0,
      "byteLength": 2484,
      "target": 34962,
      "byteStride": 12
    },
    {
      "buffer": 0,
      "byteOffset": 2484,
      "byteLength": 2484,
      "target": 34962,
      "byteStride": 12
    },
    {
      "buffer": 0,
      "byteOffset": 4968,
      "byteLength": 1656,
      "target": 34962,
      "byteStride": 8
    },
    {
      "buffer": 0,
      "byteOffset": 6624,
      "byteLength": 684,
      "target": 34963
    },
    {
      "buffer": 0,
      "byteOffset": 7308,
      "byteLength": 4764,
      "target": 34962,
      "byteStride": 12
    },
    {
      "buffer": 0,
      "byteOffset": 12072,
      "byteLength": 4764,
      "target": 34962,
      "byteStride": 12
    },
    {
      "buffer": 0,
      "byteOffset": 16836,
      "byteLength": 3176,
      "target": 34962,
      "byteStride": 8
    },
    {
      "buffer": 0,
      "byteOffset": 20012,
      "byteLength": 2120,
      "target": 34963
    },
    {
      "buffer": 0,
      "byteOffset": 22132,
      "byteLength": 3912,
      "target": 34962,
      "byteStride": 12
    },
    {
      "buffer": 0,
      "byteOffset": 26044,
      "byteLength": 3912,
      "target": 34962,
      "byteStride": 12
    },
    {
      "buffer": 0,
      "byteOffset": 29956,
      "byteLength": 2608,
      "target": 34962,
      "byteStride": 8
    },
    {
      "buffer": 0,
      "byteOffset": 32564,
      "byteLength": 1160,
      "target": 34963
    }
  ],
  "buffers": [
    {
      "byteLength": 33724,
      "uri": "data:application/octet-stream;base64,"
    }
  ],
  "accessors": [
    {
      "bufferView": 0,
      "componentType": 5126,
      "count": 207,
      "max": [
        1,
        1,
        1
      ],
      "min": [
        -1,
        -1,
        -1
      ],
      "type": "VEC3"
    },
    {
      "bufferView": 1,
      "componentType": 5126,
      "count": 207,
      "max": [
        0.2948240041732788,
        -0.2958030104637146,
        -0.004749999847263098
      ],
      "min": [
        0.2078240066766739,
        -0.433802992105484,
        -0.009999999776482582
      ],
      "type": "VEC3"
    },
    {
      "bufferView": 2,
      "componentType": 5126,
      "count": 207,
      "max": [
        0.49067094922065735,
        0.32498496770858765
      ],
      "min": [
        0,
        0.18073254823684692
      ],
      "type": "VEC2"
    },
    {
      "bufferView": 3,
      "componentType": 5123,
      "count": 342,
      "max": [
        206
      ],
      "min": [
        0
      ],
      "type": "SCALAR"
    },
    {
      "bufferView": 4,
      "componentType": 5126,
      "count": 397,
      "max": [
        1,
        1,
        1
      ],
      "min": [
        -1,
        -0.9999769926071167,
        -1
      ],
      "type": "VEC3"
    },
    {
      "bufferView": 5,
      "componentType": 5126,
      "count": 397,
      "max": [
        0.2948240041732788,
        -0.2958030104637146,
        -0.003000000026077032
      ],
      "min": [
        0.20855900645256042,
        -0.4458029866218567,
        -0.009999999776482582
      ],
      "type": "VEC3"
    },
    {
      "bufferView": 6,
      "componentType": 5126,
      "count": 397,
      "max": [
        0.49077966809272766,
        1
      ],
      "min": [
        0,
        0.15853989124298096
      ],
      "type": "VEC2"
    },
    {
      "bufferView": 7,
      "componentType": 5123,
      "count": 1059,
      "max": [
        396
      ],
      "min": [
        0
      ],
      "type": "SCALAR"
    },
    {
      "bufferView": 8,
      "componentType": 5126,
      "count": 326,
      "max": [
        0.7041112780570984,
        1,
        0
      ],
      "min": [
        -0.7075942754745483,
        -0.70601886510849,
        -1
      ],
      "type": "VEC3"
    },
    {
      "bufferView": 9,
      "componentType": 5126,
      "count": 326,
      "max": [
        0.2588099241256714,
        -0.2988030016422272,
        -0.010100000537931919
      ],
      "min": [
        0.24480992555618286,
        -0.3128030002117157,
        -0.010499999858438969
      ],
      "type": "VEC3"
    },
    {
      "bufferView": 10,
      "componentType": 5126,
      "count": 326,
      "max": [
        0.4707481563091278,
        0.32498496770858765
      ],
      "min": [
        0.036917794495821,
        0.30612117052078247
      ],
      "type": "VEC2"
    },
    {
      "bufferView": 11,
      "componentType": 5123,
      "count": 579,
      "max": [
        325
      ],
      "min": [
        0
      ],
      "type": "SCALAR"
    }
  ],
  "materials": [
    {
      "pbrMetallicRoughness": {
        "baseColorFactor": [
          0.10000000149011612,
          0.10000000149011612,
          0.10000000149011612,
          1
        ],
        "metallicFactor": 0,
        "roughnessFactor": 1
      },
      "name": "Color_008"
    },
    {
      "pbrMetallicRoughness": {
        "baseColorFactor": [
          0.949999988079071,
          0.949999988079071,
          0.949999988079071,
          1
        ],
        "metallicFactor": 0,
        "roughnessFactor": 1
      },
      "name": "FrontColor"
    },
    {
      "pbrMetallicRoughness": {
        "baseColorFactor": [
          0.75,
          0.75,
          0.75,
          1
        ],
        "metallicFactor": 0,
        "roughnessFactor": 1
      },
      "name": "Color_000"
    }
  ],
  "meshes": [
    {
      "primitives": [
        {
          "mode": 4,
          "attributes": {
            "NORMAL": 0,
            "POSITION": 1,
            "TEXCOORD_0": 2
          },
          "indices": 3,
          "material": 0
        }
      ]
    },
    {
      "primitives": [
        {
          "mode": 4,
          "attributes": {
            "NORMAL": 4,
            "POSITION": 5,
            "TEXCOORD_0": 6
          },
          "indices": 7,
          "material": 1
        }
      ]
    },
    {
      "primitives": [
        {
          "mode": 4,
          "attributes": {
            "NORMAL": 8,
            "POSITION": 9,
            "TEXCOORD_0": 10
          },
          "indices": 11,
          "material": 2
        }
      ]
    }
  ]
}