{
  "asset": {
    "version": "2.0",
    "generator": "THREE.GLTFExporter"
  },
  "scenes": [
    {
      "name": "AuxScene",
      "nodes": [
        5
      ]
    }
  ],
  "scene": 0,
  "nodes": [
    {
      "matrix": [
        1,
        0,
        0,
        0,
        0,
        1,
        0,
        0,
        0,
        0,
        1,
        0,
        -0.11499999463558197,
        0.00400000016983687,
        0.04500000178813934,
        1
      ],
      "name": "Mesh1_Agrupar_1_Model002",
      "mesh": 0
    },
    {
      "matrix": [
        1,
        0,
        0,
        0,
        0,
        1,
        0,
        0,
        0,
        0,
        1,
        0,
        -0.11499999463558197,
        0.00400000016983687,
        0.04500000178813934,
        1
      ],
      "name": "Mesh1_Agrupar_1_Model002_1",
      "mesh": 1
    },
    {
      "matrix": [
        1,
        0,
        0,
        0,
        0,
        1,
        0,
        0,
        0,
        0,
        1,
        0,
        -0.11499999463558197,
        0.00400000016983687,
        0.04500000178813934,
        1
      ],
      "name": "Mesh1_Agrupar_1_Model002_2",
      "mesh": 2
    },
    {
      "matrix": [
        1,
        0,
        0,
        0,
        0,
        1,
        0,
        0,
        0,
        0,
        1,
        0,
        -0.11499999463558197,
        0.00400000016983687,
        0.04500000178813934,
        1
      ],
      "name": "Mesh1_Agrupar_1_Model002_3",
      "mesh": 3
    },
    {
      "matrix": [
        2.220446049250313e-16,
        0,
        1,
        0,
        0,
        1,
        0,
        0,
        -1,
        0,
        2.220446049250313e-16,
        0,
        398.0467758606483,
        92.76101804867824,
        -35.87765673693869,
        1
      ],
      "children": [
        0,
        1,
        2,
        3
      ]
    },
    {
      "matrix": [
        0.02,
        0,
        0,
        0,
        0,
        0.02,
        0,
        0,
        0,
        0,
        0.02,
        0,
        0,
        0,
        0,
        1
      ],
      "children": [
        4
      ]
    }
  ],
  "bufferViews": [
    {
      "buffer": 0,
      "byteOffset": 0,
      "byteLength": 864,
      "target": 34962,
      "byteStride": 12
    },
    {
      "buffer": 0,
      "byteOffset": 864,
      "byteLength": 864,
      "target": 34962,
      "byteStride": 12
    },
    {
      "buffer": 0,
      "byteOffset": 1728,
      "byteLength": 576,
      "target": 34962,
      "byteStride": 8
    },
    {
      "buffer": 0,
      "byteOffset": 2304,
      "byteLength": 264,
      "target": 34963
    },
    {
      "buffer": 0,
      "byteOffset": 2568,
      "byteLength": 10368,
      "target": 34962,
      "byteStride": 12
    },
    {
      "buffer": 0,
      "byteOffset": 12936,
      "byteLength": 10368,
      "target": 34962,
      "byteStride": 12
    },
    {
      "buffer": 0,
      "byteOffset": 23304,
      "byteLength": 6912,
      "target": 34962,
      "byteStride": 8
    },
    {
      "buffer": 0,
      "byteOffset": 30216,
      "byteLength": 3384,
      "target": 34963
    },
    {
      "buffer": 0,
      "byteOffset": 33600,
      "byteLength": 8640,
      "target": 34962,
      "byteStride": 12
    },
    {
      "buffer": 0,
      "byteOffset": 42240,
      "byteLength": 8640,
      "target": 34962,
      "byteStride": 12
    },
    {
      "buffer": 0,
      "byteOffset": 50880,
      "byteLength": 5760,
      "target": 34962,
      "byteStride": 8
    },
    {
      "buffer": 0,
      "byteOffset": 56640,
      "byteLength": 2808,
      "target": 34963
    },
    {
      "buffer": 0,
      "byteOffset": 59448,
      "byteLength": 17280,
      "target": 34962,
      "byteStride": 12
    },
    {
      "buffer": 0,
      "byteOffset": 76728,
      "byteLength": 17280,
      "target": 34962,
      "byteStride": 12
    },
    {
      "buffer": 0,
      "byteOffset": 94008,
      "byteLength": 11520,
      "target": 34962,
      "byteStride": 8
    },
    {
      "buffer": 0,
      "byteOffset": 105528,
      "byteLength": 5616,
      "target": 34963
    }
  ],
  "buffers": [
    {
      "byteLength": 111144,
      "uri": "data:application/octet-stream;base64,"
    }
  ],
  "accessors": [
    {
      "bufferView": 0,
      "componentType": 5126,
      "count": 72,
      "max": [
        1,
        1,
        1
      ],
      "min": [
        -1,
        -1,
        -1
      ],
      "type": "VEC3"
    },
    {
      "bufferView": 1,
      "componentType": 5126,
      "count": 72,
      "max": [
        0.22999998927116394,
        -0.003000000026077032,
        0
      ],
      "min": [
        0,
        -0.00800000037997961,
        -0.09000000357627869
      ],
      "type": "VEC3"
    },
    {
      "bufferView": 2,
      "componentType": 5126,
      "count": 72,
      "max": [
        0.9891950488090515,
        1
      ],
      "min": [
        0,
        0.21052634716033936
      ],
      "type": "VEC2"
    },
    {
      "bufferView": 3,
      "componentType": 5123,
      "count": 132,
      "max": [
        71
      ],
      "min": [
        0
      ],
      "type": "SCALAR"
    },
    {
      "bufferView": 4,
      "componentType": 5126,
      "count": 864,
      "max": [
        1,
        1,
        1
      ],
      "min": [
        -1,
        -1,
        -1
      ],
      "type": "VEC3"
    },
    {
      "bufferView": 5,
      "componentType": 5126,
      "count": 864,
      "max": [
        0.21399998664855957,
        -0.0014999998966231942,
        -0.01599999889731407
      ],
      "min": [
        0.01599999889731407,
        -0.005337078124284744,
        -0.07400000095367432
      ],
      "type": "VEC3"
    },
    {
      "bufferView": 6,
      "componentType": 5126,
      "count": 864,
      "max": [
        1,
        1
      ],
      "min": [
        0,
        0
      ],
      "type": "VEC2"
    },
    {
      "bufferView": 7,
      "componentType": 5123,
      "count": 1692,
      "max": [
        863
      ],
      "min": [
        0
      ],
      "type": "SCALAR"
    },
    {
      "bufferView": 8,
      "componentType": 5126,
      "count": 720,
      "max": [
        0.996918261051178,
        1,
        0.9969182014465332
      ],
      "min": [
        -0.996918261051178,
        -1,
        -0.996918261051178
      ],
      "type": "VEC3"
    },
    {
      "bufferView": 9,
      "componentType": 5126,
      "count": 720,
      "max": [
        0.20499998331069946,
        -0.001500000013038516,
        -0.02500000037252903
      ],
      "min": [
        0.02500000037252903,
        -0.004000000189989805,
        -0.06499999761581421
      ],
      "type": "VEC3"
    },
    {
      "bufferView": 10,
      "componentType": 5126,
      "count": 720,
      "max": [
        0.9243655204772949,
        1
      ],
      "min": [
        0,
        0.07712215185165405
      ],
      "type": "VEC2"
    },
    {
      "bufferView": 11,
      "componentType": 5123,
      "count": 1404,
      "max": [
        719
      ],
      "min": [
        0
      ],
      "type": "SCALAR"
    },
    {
      "bufferView": 12,
      "componentType": 5126,
      "count": 1440,
      "max": [
        0.9969194531440735,
        1,
        0.9969183802604675
      ],
      "min": [
        -0.9969194531440735,
        -1,
        -0.9969183802604675
      ],
      "type": "VEC3"
    },
    {
      "bufferView": 13,
      "componentType": 5126,
      "count": 1440,
      "max": [
        0.19763708114624023,
        4.030586975289907e-11,
        -0.041809484362602234
      ],
      "min": [
        0.03195245936512947,
        -0.003999997861683369,
        -0.048209480941295624
      ],
      "type": "VEC3"
    },
    {
      "bufferView": 14,
      "componentType": 5126,
      "count": 1440,
      "max": [
        0.9243655204772949,
        1
      ],
      "min": [
        0,
        0.07712215185165405
      ],
      "type": "VEC2"
    },
    {
      "bufferView": 15,
      "componentType": 5123,
      "count": 2808,
      "max": [
        1439
      ],
      "min": [
        0
      ],
      "type": "SCALAR"
    }
  ],
  "materials": [
    {
      "pbrMetallicRoughness": {
        "metallicFactor": 0,
        "roughnessFactor": 1
      },
      "name": "GTA UNICO"
    },
    {
      "pbrMetallicRoughness": {
        "baseColorFactor": [
          0,
          0,
          0,
          0.4000000059604645
        ],
        "metallicFactor": 0,
        "roughnessFactor": 1
      },
      "alphaMode": "BLEND",
      "name": "GTA UNICO SOMBRA TRANS"
    },
    {
      "pbrMetallicRoughness": {
        "baseColorFactor": [
          0.8999999761581421,
          0.8999999761581421,
          0.8999999761581421,
          1
        ],
        "metallicFactor": 0,
        "roughnessFactor": 1
      },
      "name": "GTA UNICO SOMBRA TRANS 4"
    },
    {
      "pbrMetallicRoughness": {
        "baseColorFactor": [
          0,
          0,
          0,
          1
        ],
        "metallicFactor": 0,
        "roughnessFactor": 1
      },
      "name": "GTA UNICO SOMBRA TRANS 3"
    }
  ],
  "meshes": [
    {
      "primitives": [
        {
          "mode": 4,
          "attributes": {
            "NORMAL": 0,
            "POSITION": 1,
            "TEXCOORD_0": 2
          },
          "indices": 3,
          "material": 0
        }
      ]
    },
    {
      "primitives": [
        {
          "mode": 4,
          "attributes": {
            "NORMAL": 4,
            "POSITION": 5,
            "TEXCOORD_0": 6
          },
          "indices": 7,
          "material": 1
        }
      ]
    },
    {
      "primitives": [
        {
          "mode": 4,
          "attributes": {
            "NORMAL": 8,
            "POSITION": 9,
            "TEXCOORD_0": 10
          },
          "indices": 11,
          "material": 2
        }
      ]
    },
    {
      "primitives": [
        {
          "mode": 4,
          "attributes": {
            "NORMAL": 12,
            "POSITION": 13,
            "TEXCOORD_0": 14
          },
          "indices": 15,
          "material": 3
        }
      ]
    }
  ]
}