{
  "asset": {
    "version": "2.0",
    "generator": "THREE.GLTFExporter"
  },
  "scenes": [
    {
      "name": "AuxScene",
      "nodes": [
        3
      ]
    }
  ],
  "scene": 0,
  "nodes": [
    {
      "matrix": [
        100,
        0,
        0,
        0,
        0,
        -0.000013367089680637505,
        99.48796503949544,
        0,
        0,
        -99.99999657714513,
        -0.00001343588565490797,
        0,
        -47.49999940395359,
        -109.99998797314639,
        7.499975257156543,
        1
      ],
      "name": "Mesh2_Agrupar_2_Model000",
      "extras": {
        "name": "Mesh2 Agrupar_2 Model.000"
      },
      "mesh": 0
    },
    {
      "matrix": [
        100,
        0,
        0,
        0,
        0,
        -0.000013367089680637505,
        99.48796503949544,
        0,
        0,
        -99.99999657714513,
        -0.00001343588565490797,
        0,
        -47.49999940395359,
        -109.99998797314639,
        7.499975257156543,
        1
      ],
      "name": "Mesh2_Agrupar_2_Model001",
      "extras": {
        "name": "Mesh2 Agrupar_2 Model.001"
      },
      "mesh": 1
    },
    {
      "matrix": [
        2.3373116307898046e-16,
        0,
        -1.052631578947369,
        0,
        0,
        1.0227272735755506,
        0,
        0,
        0.9967651202567789,
        0,
        2.213263173304678e-16,
        0,
        -6.053223849985556,
        112.51,
        106.69200000000001,
        1
      ],
      "children": [
        0,
        1
      ]
    },
    {
      "matrix": [
        0.02,
        0,
        0,
        0,
        0,
        0.02,
        0,
        0,
        0,
        0,
        0.02,
        0,
        0,
        0,
        0,
        1
      ],
      "children": [
        2
      ]
    }
  ],
  "bufferViews": [
    {
      "buffer": 0,
      "byteOffset": 0,
      "byteLength": 3072,
      "target": 34962,
      "byteStride": 12
    },
    {
      "buffer": 0,
      "byteOffset": 3072,
      "byteLength": 3072,
      "target": 34962,
      "byteStride": 12
    },
    {
      "buffer": 0,
      "byteOffset": 6144,
      "byteLength": 2048,
      "target": 34962,
      "byteStride": 8
    },
    {
      "buffer": 0,
      "byteOffset": 8192,
      "byteLength": 936,
      "target": 34963
    },
    {
      "buffer": 0,
      "byteOffset": 9128,
      "byteLength": 144,
      "target": 34962,
      "byteStride": 12
    },
    {
      "buffer": 0,
      "byteOffset": 9272,
      "byteLength": 144,
      "target": 34962,
      "byteStride": 12
    },
    {
      "buffer": 0,
      "byteOffset": 9416,
      "byteLength": 192,
      "target": 34962,
      "byteStride": 16
    },
    {
      "buffer": 0,
      "byteOffset": 9608,
      "byteLength": 96,
      "target": 34962,
      "byteStride": 8
    },
    {
      "buffer": 0,
      "byteOffset": 9704,
      "byteLength": 48,
      "target": 34963
    }
  ],
  "buffers": [
    {
      "byteLength": 9752,
      "uri": "data:application/octet-stream;base64,"
    }
  ],
  "accessors": [
    {
      "bufferView": 0,
      "componentType": 5126,
      "count": 256,
      "max": [
        1,
        1,
        1
      ],
      "min": [
        -1,
        -1,
        -1
      ],
      "type": "VEC3"
    },
    {
      "bufferView": 1,
      "componentType": 5126,
      "count": 256,
      "max": [
        0.949999988079071,
        -0.015385800041258335,
        0
      ],
      "min": [
        6.628210159788232e-16,
        -0.13538600504398346,
        -2.200000047683716
      ],
      "type": "VEC3"
    },
    {
      "bufferView": 2,
      "componentType": 5126,
      "count": 256,
      "max": [
        0.48760461807250977,
        0.7749999761581421
      ],
      "min": [
        0.14156262576580048,
        0.2250000238418579
      ],
      "type": "VEC2"
    },
    {
      "bufferView": 3,
      "componentType": 5123,
      "count": 468,
      "max": [
        255
      ],
      "min": [
        0
      ],
      "type": "SCALAR"
    },
    {
      "bufferView": 4,
      "componentType": 5126,
      "count": 12,
      "max": [
        1,
        0,
        1
      ],
      "min": [
        0,
        0,
        -1
      ],
      "type": "VEC3"
    },
    {
      "bufferView": 5,
      "componentType": 5126,
      "count": 12,
      "max": [
        0.8374999761581421,
        -0.05538545548915863,
        2.384185791015625e-7
      ],
      "min": [
        0.11249999701976776,
        -0.09538579732179642,
        0
      ],
      "type": "VEC3"
    },
    {
      "bufferView": 6,
      "componentType": 5126,
      "count": 12,
      "max": [
        0,
        0.06237967312335968,
        0.9980524778366089,
        1
      ],
      "min": [
        -0.000005960466751275817,
        -1,
        -0.9980525374412537,
        1
      ],
      "type": "VEC4"
    },
    {
      "bufferView": 7,
      "componentType": 5126,
      "count": 12,
      "max": [
        0.4699266850948334,
        0.7749999761581421
      ],
      "min": [
        0.35020095109939575,
        0.5280001163482666
      ],
      "type": "VEC2"
    },
    {
      "bufferView": 8,
      "componentType": 5123,
      "count": 24,
      "max": [
        11
      ],
      "min": [
        0
      ],
      "type": "SCALAR"
    }
  ],
  "materials": [
    {
      "pbrMetallicRoughness": {
        "metallicFactor": 0,
        "roughnessFactor": 1,
        "baseColorTexture": {
          "index": 0
        }
      },
      "name": "GTA 000PUE; PIEZA MARCO"
    },
    {
      "pbrMetallicRoughness": {
        "baseColorFactor": [
          1,
          1,
          1,
          0.0010000000474974513
        ],
        "metallicFactor": 0,
        "roughnessFactor": 1
      },
      "alphaMode": "BLEND",
      "name": "GTA UNICO SOMBRA TRANS"
    }
  ],
  "textures": [
    {
      "sampler": 0,
      "source": 0,
      "name": "Roble Nórdico"
    }
  ],
  "samplers": [
    {
      "magFilter": 9729,
      "minFilter": 9729,
      "wrapS": 33071,
      "wrapT": 33071
    }
  ],
  "images": [
    {
      "mimeType": "image/png",
      "uri": "data:image/png;base64,"
    }
  ],
  "meshes": [
    {
      "primitives": [
        {
          "mode": 4,
          "attributes": {
            "NORMAL": 0,
            "POSITION": 1,
            "TEXCOORD_0": 2
          },
          "indices": 3,
          "material": 0
        }
      ]
    },
    {
      "primitives": [
        {
          "mode": 4,
          "attributes": {
            "NORMAL": 4,
            "POSITION": 5,
            "TANGENT": 6,
            "TEXCOORD_0": 7
          },
          "indices": 8,
          "material": 1
        }
      ]
    }
  ]
}