{
  "asset": {
    "version": "2.0",
    "generator": "THREE.GLTFExporter"
  },
  "scenes": [
    {
      "name": "AuxScene",
      "nodes": [
        6
      ]
    }
  ],
  "scene": 0,
  "nodes": [
    {
      "matrix": [
        105.2631607055664,
        0,
        0,
        0,
        0,
        -0.00001343588565490797,
        99.99999657714513,
        0,
        0,
        -99.00989956513628,
        -0.000013302857347948436,
        0,
        -40.00000056618137,
        -25.000000210292033,
        5.999996301546814,
        1
      ],
      "name": "Mesh4_Agrupar_4_Model004",
      "extras": {
        "name": "Mesh4 Agrupar_4 Model.004"
      },
      "mesh": 0
    },
    {
      "matrix": [
        105.2631607055664,
        0,
        0,
        0,
        0,
        -0.00001343588565490797,
        99.99999657714513,
        0,
        0,
        -99.00989956513628,
        -0.000013302857347948436,
        0,
        -40.00000056618137,
        -25.000000210292033,
        5.999996301546814,
        1
      ],
      "name": "Mesh4_Agrupar_4_Model003",
      "extras": {
        "name": "Mesh4 Agrupar_4 Model.003"
      },
      "mesh": 1
    },
    {
      "matrix": [
        105.2631607055664,
        0,
        0,
        0,
        0,
        -0.00001343588565490797,
        99.99999657714513,
        0,
        0,
        -99.00989956513628,
        -0.000013302857347948436,
        0,
        -40.00000056618137,
        -25.000000210292033,
        5.999996301546814,
        1
      ],
      "name": "Mesh4_Agrupar_4_Model002",
      "extras": {
        "name": "Mesh4 Agrupar_4 Model.002"
      },
      "mesh": 2
    },
    {
      "matrix": [
        105.2631607055664,
        0,
        0,
        0,
        0,
        -0.00001343588565490797,
        99.99999657714513,
        0,
        0,
        -99.00989956513628,
        -0.000013302857347948436,
        0,
        -40.00000056618137,
        -25.000000210292033,
        5.999996301546814,
        1
      ],
      "name": "Mesh4_Agrupar_4_Model001",
      "extras": {
        "name": "Mesh4 Agrupar_4 Model.001"
      },
      "mesh": 3
    },
    {
      "matrix": [
        105.2631607055664,
        0,
        0,
        0,
        0,
        -0.00001343588565490797,
        99.99999657714513,
        0,
        0,
        -99.00989956513628,
        -0.000013302857347948436,
        0,
        -40.00000056618137,
        -25.000000210292033,
        5.999996301546814,
        1
      ],
      "name": "Mesh4_Agrupar_4_Model",
      "extras": {
        "name": "Mesh4 Agrupar_4 Model"
      },
      "mesh": 4
    },
    {
      "matrix": [
        2.220446049250313e-16,
        0,
        1,
        0,
        0,
        1,
        0,
        0,
        -1,
        0,
        2.220446049250313e-16,
        0,
        392.446773726784,
        41,
        5.45094911917437,
        1
      ],
      "children": [
        0,
        1,
        2,
        3,
        4
      ]
    },
    {
      "matrix": [
        0.02,
        0,
        0,
        0,
        0,
        0.02,
        0,
        0,
        0,
        0,
        0.02,
        0,
        0,
        0,
        0,
        1
      ],
      "children": [
        5
      ]
    }
  ],
  "bufferViews": [
    {
      "buffer": 0,
      "byteOffset": 0,
      "byteLength": 12432,
      "target": 34962,
      "byteStride": 12
    },
    {
      "buffer": 0,
      "byteOffset": 12432,
      "byteLength": 12432,
      "target": 34962,
      "byteStride": 12
    },
    {
      "buffer": 0,
      "byteOffset": 24864,
      "byteLength": 8288,
      "target": 34962,
      "byteStride": 8
    },
    {
      "buffer": 0,
      "byteOffset": 33152,
      "byteLength": 3648,
      "target": 34963
    },
    {
      "buffer": 0,
      "byteOffset": 36800,
      "byteLength": 5664,
      "target": 34962,
      "byteStride": 12
    },
    {
      "buffer": 0,
      "byteOffset": 42464,
      "byteLength": 5664,
      "target": 34962,
      "byteStride": 12
    },
    {
      "buffer": 0,
      "byteOffset": 48128,
      "byteLength": 3776,
      "target": 34962,
      "byteStride": 8
    },
    {
      "buffer": 0,
      "byteOffset": 51904,
      "byteLength": 1824,
      "target": 34963
    },
    {
      "buffer": 0,
      "byteOffset": 53728,
      "byteLength": 4896,
      "target": 34962,
      "byteStride": 12
    },
    {
      "buffer": 0,
      "byteOffset": 58624,
      "byteLength": 4896,
      "target": 34962,
      "byteStride": 12
    },
    {
      "buffer": 0,
      "byteOffset": 63520,
      "byteLength": 3264,
      "target": 34962,
      "byteStride": 8
    },
    {
      "buffer": 0,
      "byteOffset": 66784,
      "byteLength": 1608,
      "target": 34963
    },
    {
      "buffer": 0,
      "byteOffset": 68392,
      "byteLength": 15504,
      "target": 34962,
      "byteStride": 12
    },
    {
      "buffer": 0,
      "byteOffset": 83896,
      "byteLength": 15504,
      "target": 34962,
      "byteStride": 12
    },
    {
      "buffer": 0,
      "byteOffset": 99400,
      "byteLength": 10336,
      "target": 34962,
      "byteStride": 8
    },
    {
      "buffer": 0,
      "byteOffset": 109736,
      "byteLength": 4848,
      "target": 34963
    },
    {
      "buffer": 0,
      "byteOffset": 114584,
      "byteLength": 2832,
      "target": 34962,
      "byteStride": 12
    },
    {
      "buffer": 0,
      "byteOffset": 117416,
      "byteLength": 2832,
      "target": 34962,
      "byteStride": 12
    },
    {
      "buffer": 0,
      "byteOffset": 120248,
      "byteLength": 1888,
      "target": 34962,
      "byteStride": 8
    },
    {
      "buffer": 0,
      "byteOffset": 122136,
      "byteLength": 912,
      "target": 34963
    }
  ],
  "buffers": [
    {
      "byteLength": 123048,
      "uri": "data:application/octet-stream;base64,"
    }
  ],
  "accessors": [
    {
      "bufferView": 0,
      "componentType": 5126,
      "count": 1036,
      "max": [
        0.9969217777252197,
        1,
        0.997247576713562
      ],
      "min": [
        -1,
        -1,
        -0.9969236850738525
      ],
      "type": "VEC3"
    },
    {
      "bufferView": 1,
      "componentType": 5126,
      "count": 1036,
      "max": [
        0.75,
        -0.03127539902925491,
        -0.014999999664723873
      ],
      "min": [
        0.7099999785423279,
        -0.11999999731779099,
        -0.4950000047683716
      ],
      "type": "VEC3"
    },
    {
      "bufferView": 2,
      "componentType": 5126,
      "count": 1036,
      "max": [
        0.7394101619720459,
        0.20287930965423584
      ],
      "min": [
        0.07091991603374481,
        0.11203056573867798
      ],
      "type": "VEC2"
    },
    {
      "bufferView": 3,
      "componentType": 5123,
      "count": 1824,
      "max": [
        1035
      ],
      "min": [
        0
      ],
      "type": "SCALAR"
    },
    {
      "bufferView": 4,
      "componentType": 5126,
      "count": 472,
      "max": [
        1,
        0.9969178438186646,
        0.9969164729118347
      ],
      "min": [
        -1,
        -0.9969213008880615,
        -0.9969164729118347
      ],
      "type": "VEC3"
    },
    {
      "bufferView": 5,
      "componentType": 5126,
      "count": 472,
      "max": [
        0.7099999785423279,
        -0.05093489959836006,
        -0.009999999776482582
      ],
      "min": [
        8.848479920306397e-16,
        -0.08093489706516266,
        -0.5
      ],
      "type": "VEC3"
    },
    {
      "bufferView": 6,
      "componentType": 5126,
      "count": 472,
      "max": [
        0.9601073861122131,
        0.8143502473831177
      ],
      "min": [
        0.4952021837234497,
        0.13623523712158203
      ],
      "type": "VEC2"
    },
    {
      "bufferView": 7,
      "componentType": 5123,
      "count": 912,
      "max": [
        471
      ],
      "min": [
        0
      ],
      "type": "SCALAR"
    },
    {
      "bufferView": 8,
      "componentType": 5126,
      "count": 408,
      "max": [
        1,
        1,
        1
      ],
      "min": [
        -1,
        -1,
        -1
      ],
      "type": "VEC3"
    },
    {
      "bufferView": 9,
      "componentType": 5126,
      "count": 408,
      "max": [
        0.6899999976158142,
        -0.009999999776482582,
        -0.029999999329447746
      ],
      "min": [
        0.019999999552965164,
        -0.09000000357627869,
        -0.48500001430511475
      ],
      "type": "VEC3"
    },
    {
      "bufferView": 10,
      "componentType": 5126,
      "count": 408,
      "max": [
        0.8940672278404236,
        1
      ],
      "min": [
        0,
        0.11704951524734497
      ],
      "type": "VEC2"
    },
    {
      "bufferView": 11,
      "componentType": 5123,
      "count": 804,
      "max": [
        407
      ],
      "min": [
        0
      ],
      "type": "SCALAR"
    },
    {
      "bufferView": 12,
      "componentType": 5126,
      "count": 1292,
      "max": [
        1,
        1,
        1
      ],
      "min": [
        -1,
        -1,
        -1
      ],
      "type": "VEC3"
    },
    {
      "bufferView": 13,
      "componentType": 5126,
      "count": 1292,
      "max": [
        0.7599999904632568,
        0,
        0
      ],
      "min": [
        0,
        -0.11999999731779099,
        -0.5049999952316284
      ],
      "type": "VEC3"
    },
    {
      "bufferView": 14,
      "componentType": 5126,
      "count": 1292,
      "max": [
        1,
        1
      ],
      "min": [
        0,
        0
      ],
      "type": "VEC2"
    },
    {
      "bufferView": 15,
      "componentType": 5123,
      "count": 2424,
      "max": [
        1291
      ],
      "min": [
        0
      ],
      "type": "SCALAR"
    },
    {
      "bufferView": 16,
      "componentType": 5126,
      "count": 236,
      "max": [
        0.9969074130058289,
        1,
        0.9969073534011841
      ],
      "min": [
        -0.9969093799591064,
        -1,
        -0.9969073534011841
      ],
      "type": "VEC3"
    },
    {
      "bufferView": 17,
      "componentType": 5126,
      "count": 236,
      "max": [
        0.7549999952316284,
        -0.0012753900373354554,
        -0.4699999988079071
      ],
      "min": [
        0.7250000238418579,
        -0.03127539902925491,
        -0.5
      ],
      "type": "VEC3"
    },
    {
      "bufferView": 18,
      "componentType": 5126,
      "count": 236,
      "max": [
        0.8718637824058533,
        0.1495126485824585
      ],
      "min": [
        0.4200141727924347,
        0.1195516586303711
      ],
      "type": "VEC2"
    },
    {
      "bufferView": 19,
      "componentType": 5123,
      "count": 456,
      "max": [
        235
      ],
      "min": [
        0
      ],
      "type": "SCALAR"
    }
  ],
  "materials": [
    {
      "pbrMetallicRoughness": {
        "baseColorFactor": [
          0.6499999761581421,
          0.6499999761581421,
          0.6499999761581421,
          1
        ],
        "metallicFactor": 0,
        "roughnessFactor": 1
      },
      "name": "GTA UNICO 3"
    },
    {
      "pbrMetallicRoughness": {
        "baseColorFactor": [
          0.8500000238418579,
          0.8500000238418579,
          0.8500000238418579,
          1
        ],
        "metallicFactor": 0,
        "roughnessFactor": 1
      },
      "name": "GTA UNICO 2"
    },
    {
      "pbrMetallicRoughness": {
        "baseColorFactor": [
          0.6499999761581421,
          0.6499999761581421,
          0.6499999761581421,
          1
        ],
        "metallicFactor": 0,
        "roughnessFactor": 1
      },
      "name": "GTA UNICO 5"
    },
    {
      "pbrMetallicRoughness": {
        "baseColorFactor": [
          0.949999988079071,
          0.949999988079071,
          0.949999988079071,
          1
        ],
        "metallicFactor": 0,
        "roughnessFactor": 1
      },
      "name": "GTA UNICO"
    },
    {
      "pbrMetallicRoughness": {
        "baseColorFactor": [
          0.20000000298023224,
          0.20000000298023224,
          0.20000000298023224,
          1
        ],
        "metallicFactor": 0,
        "roughnessFactor": 1
      },
      "name": "GTA UNICO 4"
    }
  ],
  "meshes": [
    {
      "primitives": [
        {
          "mode": 4,
          "attributes": {
            "NORMAL": 0,
            "POSITION": 1,
            "TEXCOORD_0": 2
          },
          "indices": 3,
          "material": 0
        }
      ]
    },
    {
      "primitives": [
        {
          "mode": 4,
          "attributes": {
            "NORMAL": 4,
            "POSITION": 5,
            "TEXCOORD_0": 6
          },
          "indices": 7,
          "material": 1
        }
      ]
    },
    {
      "primitives": [
        {
          "mode": 4,
          "attributes": {
            "NORMAL": 8,
            "POSITION": 9,
            "TEXCOORD_0": 10
          },
          "indices": 11,
          "material": 2
        }
      ]
    },
    {
      "primitives": [
        {
          "mode": 4,
          "attributes": {
            "NORMAL": 12,
            "POSITION": 13,
            "TEXCOORD_0": 14
          },
          "indices": 15,
          "material": 3
        }
      ]
    },
    {
      "primitives": [
        {
          "mode": 4,
          "attributes": {
            "NORMAL": 16,
            "POSITION": 17,
            "TEXCOORD_0": 18
          },
          "indices": 19,
          "material": 4
        }
      ]
    }
  ]
}